<?xml version="1.0" standalone="no"?>
<!DOCTYPE svg PUBLIC "-//W3C//DTD SVG 20010904//EN"
 "http://www.w3.org/TR/2001/REC-SVG-20010904/DTD/svg10.dtd">
<svg version="1.0" xmlns="http://www.w3.org/2000/svg"
 width="512.000000pt" height="512.000000pt" viewBox="0 0 512.000000 512.000000"
 preserveAspectRatio="xMidYMid meet">
<metadata>
Created by potrace 1.14, written by Peter Selinger 2001-2017
</metadata>
<g transform="translate(0.000000,512.000000) scale(0.100000,-0.100000)"
fill="#000000" stroke="none">
<path d="M2360 4900 c-127 -11 -303 -39 -310 -49 -3 -4 -29 -10 -58 -13 -29
-3 -60 -12 -70 -22 -12 -10 -36 -16 -65 -16 -26 0 -47 -4 -47 -9 0 -5 -19 -12
-42 -16 -23 -4 -48 -14 -56 -21 -7 -8 -24 -14 -36 -14 -13 0 -29 -7 -36 -15
-7 -8 -26 -15 -42 -15 -16 0 -31 -6 -34 -15 -3 -8 -26 -17 -50 -21 -24 -3 -44
-10 -44 -15 0 -5 -6 -9 -14 -9 -7 0 -19 -7 -26 -15 -7 -9 -37 -27 -67 -41 -29
-14 -53 -30 -53 -35 0 -5 -6 -9 -14 -9 -8 0 -21 -6 -28 -12 -8 -7 -26 -20 -40
-28 -57 -32 -140 -93 -145 -106 -3 -8 -9 -14 -15 -14 -5 0 -26 -16 -46 -35
-20 -19 -43 -35 -49 -35 -7 0 -13 -5 -13 -11 0 -14 -41 -48 -57 -49 -7 0 -13
-7 -13 -15 0 -8 -7 -15 -15 -15 -8 0 -15 -7 -15 -15 0 -8 -7 -15 -15 -15 -8 0
-15 -9 -15 -20 0 -14 -7 -20 -21 -20 -11 0 -17 -5 -14 -10 3 -6 -1 -13 -9 -16
-9 -3 -16 -12 -16 -20 0 -8 -7 -14 -15 -14 -8 0 -15 -6 -15 -14 0 -8 -13 -25
-30 -39 -16 -14 -32 -37 -36 -51 -3 -14 -12 -26 -20 -26 -8 0 -14 -6 -14 -13
0 -8 -9 -22 -20 -32 -11 -10 -20 -22 -20 -27 0 -5 -6 -16 -13 -23 -23 -27 -32
-40 -44 -67 -7 -16 -17 -28 -23 -28 -5 0 -10 -13 -10 -29 0 -20 -9 -37 -29
-53 -19 -16 -32 -41 -41 -76 -6 -29 -16 -55 -21 -58 -5 -3 -9 -14 -9 -25 0
-11 -7 -22 -15 -25 -9 -4 -15 -19 -15 -39 0 -18 -6 -38 -14 -44 -7 -6 -16 -37
-19 -68 -3 -32 -11 -59 -17 -61 -5 -2 -10 -21 -10 -43 0 -21 -9 -56 -20 -76
-12 -23 -20 -57 -20 -88 -1 -27 -7 -61 -15 -75 -9 -16 -14 -56 -15 -115 0 -49
-7 -142 -15 -206 -13 -110 -12 -304 2 -339 3 -8 9 -79 12 -158 4 -88 10 -145
17 -150 6 -4 13 -42 16 -86 3 -46 10 -81 17 -86 7 -4 17 -34 21 -66 14 -98 27
-144 44 -163 9 -9 16 -26 16 -37 0 -11 6 -29 14 -40 8 -11 17 -37 21 -57 4
-21 11 -40 16 -43 5 -3 21 -30 35 -59 14 -30 29 -57 35 -60 5 -4 9 -15 9 -26
0 -10 3 -19 8 -19 4 0 18 -25 32 -56 13 -31 33 -60 42 -65 10 -5 18 -16 18
-24 0 -8 7 -15 15 -15 8 0 15 -9 15 -20 0 -11 4 -20 9 -20 5 0 14 -13 20 -30
5 -16 14 -30 19 -30 5 0 15 -13 22 -29 6 -16 23 -38 37 -48 14 -10 35 -29 47
-42 12 -13 54 -57 94 -97 39 -40 72 -77 72 -82 0 -9 55 -52 68 -52 4 0 19 -13
32 -30 14 -16 33 -29 43 -30 9 0 17 -6 17 -14 0 -8 13 -17 29 -21 16 -3 32
-12 34 -19 3 -8 26 -23 51 -35 24 -12 46 -25 48 -29 4 -9 58 -42 81 -49 9 -3
17 -9 17 -14 0 -5 5 -9 10 -9 19 0 160 -70 160 -79 0 -5 8 -7 18 -4 10 2 31
-3 47 -11 17 -9 45 -16 63 -16 20 0 31 -4 27 -10 -7 -11 13 -14 56 -11 15 1
33 -5 41 -13 9 -8 42 -18 74 -21 33 -4 71 -14 86 -21 15 -8 51 -14 80 -14 29
0 84 -7 123 -15 98 -21 621 -21 715 0 36 8 92 14 126 15 33 0 65 5 71 11 6 6
43 15 83 20 41 5 84 16 96 24 14 9 47 15 84 15 33 0 60 4 60 9 0 5 14 12 30
16 17 4 30 10 30 14 0 5 19 11 42 14 23 3 47 12 53 20 5 7 28 17 49 20 22 3
42 10 45 15 3 5 17 13 31 17 14 4 44 20 68 36 24 16 54 29 68 29 15 0 24 6 24
15 0 8 9 15 19 15 11 0 26 7 35 15 8 8 19 15 25 15 5 0 14 6 18 13 4 7 20 18
36 24 15 7 27 17 27 23 0 5 7 10 15 10 9 0 27 12 41 27 25 27 55 48 87 59 9 3
17 13 17 21 0 8 8 17 18 20 10 2 26 17 37 34 11 16 25 29 31 29 10 0 105 103
112 121 2 5 12 9 22 9 10 0 20 7 23 15 11 26 82 114 94 114 6 1 14 14 18 31 4
16 12 30 18 30 35 0 55 103 37 182 -8 34 -23 64 -42 83 -32 32 -43 36 -103 36
-22 0 -42 4 -45 10 -4 5 -42 12 -86 15 -43 3 -89 10 -100 16 -15 7 -28 7 -42
-1 -11 -6 -34 -11 -51 -11 -26 0 -30 3 -27 23 2 16 9 21 25 19 29 -4 61 24 61
55 0 26 15 31 24 8 8 -22 36 -18 36 5 0 11 -4 20 -10 20 -5 0 -10 9 -10 20 0
11 6 20 14 20 8 0 17 9 21 19 6 21 43 21 56 0 9 -15 29 -3 29 18 0 9 -6 13
-15 9 -11 -4 -15 1 -15 19 0 29 16 41 35 25 9 -7 15 -8 20 0 3 5 1 10 -4 10
-17 0 -13 39 7 60 26 28 101 156 108 185 3 14 10 25 15 25 5 0 9 13 9 28 0 16
9 39 20 52 11 13 20 36 20 52 0 15 4 28 9 28 4 0 14 21 21 48 6 26 16 56 20
67 8 18 15 45 26 100 2 11 11 92 19 180 9 88 18 167 20 175 3 9 6 109 7 223 1
181 -1 209 -15 225 -14 15 -17 40 -17 130 0 62 -4 112 -9 112 -5 0 -12 30 -15
68 -8 74 -45 212 -58 212 -4 0 -8 12 -8 28 0 15 -9 44 -20 65 -11 20 -20 51
-20 68 0 19 -11 45 -30 69 -16 21 -30 47 -30 58 0 11 -7 27 -15 35 -8 8 -26
36 -40 63 -14 26 -25 43 -25 39 0 -4 -11 5 -25 21 -14 16 -25 35 -25 42 0 6
-4 12 -9 12 -5 0 -19 16 -32 35 -13 19 -30 35 -36 35 -7 0 -13 4 -13 8 0 19
-74 102 -124 137 -16 11 -34 26 -41 33 -8 6 -17 12 -22 12 -5 0 -16 9 -26 20
-9 11 -23 20 -31 20 -8 0 -16 3 -18 8 -4 9 -58 47 -80 55 -10 3 -18 11 -18 17
0 5 -8 10 -18 10 -11 0 -37 13 -58 28 -22 16 -51 32 -66 35 -15 4 -33 14 -42
22 -8 8 -26 15 -40 15 -14 0 -29 6 -33 13 -9 14 -77 41 -130 52 -18 4 -33 11
-33 16 0 5 -18 9 -41 9 -26 0 -50 7 -66 20 -18 14 -41 20 -77 20 -29 0 -59 7
-70 15 -11 9 -42 15 -70 15 -28 1 -80 7 -116 15 -77 17 -489 27 -620 15z m441
-121 c11 -6 71 -13 132 -16 69 -4 120 -11 132 -19 11 -8 34 -14 51 -14 17 0
48 -7 67 -15 20 -8 49 -15 64 -15 15 0 41 -7 57 -15 15 -8 41 -15 56 -15 15 0
30 -6 33 -14 3 -8 24 -17 46 -21 23 -4 41 -11 41 -16 0 -5 8 -9 18 -9 9 0 58
-21 107 -46 50 -26 100 -52 112 -58 13 -6 23 -14 23 -18 0 -5 9 -8 20 -8 11 0
20 -5 20 -10 0 -6 12 -16 28 -22 15 -7 37 -22 49 -35 12 -12 33 -25 47 -29 14
-3 26 -10 26 -15 0 -5 8 -13 18 -16 9 -4 37 -26 61 -50 25 -24 52 -45 60 -48
18 -6 61 -65 61 -83 0 -7 7 -12 15 -12 8 0 15 -5 15 -10 0 -6 13 -23 29 -39
16 -15 32 -38 36 -50 3 -11 11 -21 16 -21 5 0 9 -6 9 -13 0 -8 9 -24 20 -37
11 -13 20 -29 20 -37 0 -7 4 -13 9 -13 5 0 12 -13 16 -30 4 -16 12 -33 19 -37
7 -5 16 -19 19 -33 6 -30 25 -84 43 -125 7 -16 16 -46 20 -65 3 -19 10 -37 14
-40 4 -3 10 -26 12 -53 3 -26 12 -55 22 -65 12 -14 16 -39 16 -103 0 -55 4
-89 13 -97 18 -19 18 -635 0 -653 -8 -8 -13 -41 -13 -89 0 -53 -5 -82 -16 -98
-8 -12 -18 -47 -21 -77 -3 -30 -12 -60 -19 -66 -8 -6 -14 -22 -14 -34 0 -13
-7 -37 -15 -54 -8 -17 -22 -45 -30 -62 -8 -17 -15 -40 -15 -52 0 -12 -9 -33
-20 -47 -11 -14 -20 -31 -20 -37 0 -7 -4 -13 -10 -13 -5 0 -10 -7 -10 -15 0
-8 -9 -23 -20 -32 -11 -10 -20 -21 -20 -26 0 -5 -13 -26 -30 -47 -16 -21 -30
-43 -30 -49 0 -6 -7 -11 -15 -11 -8 0 -15 -9 -15 -20 0 -11 -7 -20 -15 -20 -8
0 -15 -5 -15 -11 0 -13 -138 -149 -151 -149 -5 0 -9 -7 -9 -15 0 -8 -9 -15
-19 -15 -10 0 -21 -6 -24 -13 -2 -7 -23 -22 -46 -32 -22 -11 -41 -24 -41 -30
0 -5 -25 -21 -55 -35 -30 -14 -55 -28 -55 -32 0 -3 -18 -9 -41 -13 -22 -4 -43
-13 -46 -21 -3 -8 -17 -14 -32 -14 -15 0 -31 -4 -37 -10 -5 -5 -46 -14 -89
-20 -44 -5 -101 -15 -126 -21 -38 -8 -56 -7 -93 5 -26 9 -62 16 -80 16 -19 0
-39 7 -46 15 -7 8 -25 15 -40 15 -16 0 -30 7 -34 15 -3 8 -13 15 -22 15 -21 0
-134 114 -134 135 0 9 -7 18 -15 21 -8 4 -15 11 -15 18 0 6 -12 22 -25 35 -21
19 -32 22 -63 18 -20 -4 -38 -11 -40 -17 -2 -5 -10 -10 -17 -10 -8 0 -18 -7
-22 -15 -15 -25 -185 -146 -215 -152 -15 -3 -28 -9 -28 -13 0 -5 -15 -12 -32
-15 -18 -4 -42 -14 -53 -21 -11 -8 -29 -14 -41 -14 -12 0 -27 -7 -34 -15 -8
-10 -31 -15 -68 -15 -31 0 -84 -7 -120 -16 -35 -9 -76 -14 -90 -10 -15 3 -52
10 -82 16 -30 7 -68 18 -83 26 -16 8 -37 14 -48 14 -10 0 -28 8 -38 17 -38 35
-50 43 -63 43 -8 0 -21 9 -31 20 -9 11 -23 20 -31 20 -8 0 -16 7 -20 15 -3 8
-12 15 -20 15 -8 0 -16 10 -18 22 -2 13 -15 29 -30 36 -16 7 -28 19 -28 27 0
7 -6 20 -13 27 -23 25 -87 158 -87 182 0 14 -7 31 -15 40 -8 8 -15 32 -15 54
0 22 -7 59 -15 82 -20 57 -20 279 0 335 8 22 15 66 15 97 0 31 4 59 9 62 4 3
14 33 21 66 7 33 17 60 21 60 5 0 9 12 9 28 1 15 9 45 20 67 11 22 19 50 20
61 0 12 7 24 15 28 9 3 15 18 15 36 0 16 4 30 10 30 5 0 12 11 16 25 3 13 12
29 20 36 8 6 14 24 14 39 0 16 7 30 15 34 8 3 15 12 15 20 0 8 6 21 14 28 7 8
24 34 36 58 12 24 29 50 36 58 8 7 14 22 14 33 0 10 4 19 9 19 4 0 21 19 37
43 15 23 33 47 38 52 14 14 34 45 46 73 5 12 14 22 20 22 5 0 10 7 10 15 0 9
7 18 15 21 8 4 15 10 15 15 0 8 7 18 55 70 8 9 15 20 15 25 0 5 10 14 22 19
12 6 26 19 32 30 6 11 16 23 21 27 6 4 18 13 29 20 10 7 33 26 50 41 17 15 61
48 99 74 37 25 67 49 67 54 0 5 14 9 30 9 17 0 30 5 30 11 0 5 14 15 30 20 17
6 30 15 30 20 0 5 10 9 23 9 13 0 32 7 43 15 10 8 27 15 37 15 10 0 25 6 33
14 8 8 45 17 91 21 43 3 86 10 95 15 22 12 148 13 148 1 0 -4 26 -11 58 -14
59 -5 152 -41 152 -57 0 -11 62 -13 95 -4 25 7 55 46 61 81 3 15 7 30 10 35 3
4 71 8 152 7 109 0 160 -5 197 -17 l50 -17 -2 -94 c-2 -52 -7 -97 -12 -100 -4
-3 -11 -35 -15 -71 -4 -36 -12 -70 -18 -77 -5 -7 -12 -41 -15 -75 -3 -35 -12
-75 -19 -90 -8 -15 -14 -43 -14 -62 0 -20 -6 -53 -14 -73 -8 -21 -17 -63 -20
-93 -3 -30 -10 -56 -16 -58 -5 -2 -10 -32 -10 -66 0 -40 -6 -69 -16 -84 -8
-12 -18 -54 -21 -95 -3 -39 -10 -75 -15 -78 -5 -3 -11 -30 -14 -60 -3 -30 -12
-72 -19 -94 -8 -22 -17 -66 -20 -97 -4 -32 -11 -60 -16 -63 -5 -4 -9 -26 -9
-49 0 -24 -6 -56 -14 -71 -8 -15 -18 -61 -21 -101 -4 -41 -11 -74 -15 -74 -4
0 -10 -32 -14 -71 -3 -39 -13 -81 -21 -92 -8 -12 -15 -43 -15 -70 0 -26 -7
-62 -16 -79 -12 -23 -15 -53 -12 -123 3 -88 4 -93 35 -123 17 -18 33 -37 35
-43 3 -8 43 -11 124 -11 105 0 125 3 164 23 25 13 49 29 53 36 4 7 12 13 18
13 11 0 13 1 84 65 27 25 53 45 57 45 5 0 8 8 8 18 0 9 14 28 30 42 17 14 30
29 30 35 0 6 9 18 20 28 11 9 20 23 20 31 0 7 7 19 15 26 8 7 15 20 15 30 0
10 6 20 14 23 7 3 16 22 20 41 4 20 11 36 15 36 5 0 12 20 15 45 5 29 12 45
22 45 10 0 14 12 14 39 0 21 7 52 15 67 8 16 15 45 15 65 0 20 6 55 14 77 8
22 18 100 22 172 4 72 11 133 15 136 12 7 11 338 0 350 -5 5 -13 65 -17 134
-4 69 -13 142 -20 164 -8 21 -14 59 -14 85 -1 25 -7 57 -15 71 -8 14 -14 39
-15 55 0 17 -7 40 -15 52 -8 11 -17 39 -21 62 -4 22 -10 41 -14 41 -4 0 -11
15 -14 34 -4 19 -13 37 -21 40 -8 3 -15 14 -15 25 0 23 -38 91 -51 91 -5 0 -9
9 -9 19 0 11 -16 36 -35 55 -19 20 -35 39 -35 41 0 6 -39 45 -45 45 -2 0 -19
15 -37 33 -60 58 -111 97 -127 97 -9 0 -30 13 -47 29 -17 16 -45 32 -62 36
-18 3 -32 10 -32 15 0 4 -12 13 -27 19 -16 7 -44 21 -63 31 -19 11 -52 24 -72
30 -21 6 -38 15 -38 20 0 6 -20 10 -45 10 -32 0 -45 4 -45 14 0 10 -16 17 -47
21 -27 3 -60 13 -75 21 -14 8 -39 14 -55 14 -15 0 -50 7 -77 15 -39 12 -111
15 -338 15 -173 1 -295 -3 -306 -9 -11 -6 -50 -15 -88 -21 -38 -6 -73 -15 -78
-21 -6 -5 -24 -9 -40 -9 -17 0 -44 -9 -61 -20 -16 -11 -42 -20 -57 -20 -16 0
-28 -4 -28 -8 0 -4 -12 -13 -27 -19 -16 -7 -36 -17 -45 -23 -45 -26 -153 -80
-162 -80 -3 0 -20 -13 -38 -30 -18 -16 -36 -30 -41 -30 -10 0 -82 -54 -110
-82 -10 -10 -21 -18 -25 -18 -5 0 -46 -36 -93 -80 -46 -44 -87 -80 -91 -80 -5
0 -8 -7 -8 -15 0 -9 -7 -18 -15 -21 -8 -4 -15 -12 -15 -20 0 -8 -9 -19 -20
-26 -11 -7 -20 -18 -20 -25 0 -7 -4 -13 -9 -13 -5 0 -20 -21 -33 -47 -13 -27
-29 -52 -35 -56 -7 -4 -13 -18 -13 -31 0 -13 -6 -29 -14 -35 -8 -7 -17 -23
-20 -36 -4 -14 -10 -25 -15 -25 -5 0 -13 -15 -16 -32 -4 -18 -14 -42 -21 -53
-8 -11 -14 -30 -14 -43 0 -13 -7 -30 -15 -38 -8 -9 -15 -29 -15 -45 0 -16 -6
-40 -14 -52 -8 -12 -17 -43 -20 -69 -4 -26 -11 -50 -17 -53 -5 -4 -9 -39 -9
-78 0 -53 -5 -79 -17 -97 -14 -20 -18 -52 -21 -160 -2 -74 -7 -144 -13 -155
-11 -23 -6 -452 8 -677 7 -108 14 -153 26 -172 12 -17 17 -47 17 -95 0 -52 4
-70 15 -75 10 -3 15 -20 15 -48 1 -24 7 -54 15 -68 8 -14 14 -34 15 -45 0 -11
7 -33 15 -49 8 -15 15 -36 15 -45 0 -9 9 -33 20 -54 11 -20 20 -44 20 -52 0
-8 4 -15 9 -15 5 0 12 -13 16 -29 3 -16 13 -35 21 -42 8 -6 14 -22 14 -35 0
-14 6 -24 14 -24 8 0 17 -12 20 -26 7 -27 7 -28 61 -89 19 -22 35 -45 35 -50
0 -6 8 -18 18 -27 9 -9 41 -41 70 -72 29 -31 57 -56 62 -56 6 0 10 -7 10 -15
0 -8 4 -15 10 -15 5 0 27 -16 47 -35 65 -59 73 -65 83 -65 6 0 13 -7 16 -15 4
-8 13 -15 20 -15 8 0 17 -6 20 -14 3 -8 17 -17 32 -21 15 -4 34 -12 42 -19 8
-7 35 -21 60 -31 25 -10 52 -24 60 -31 8 -7 32 -15 53 -19 20 -4 37 -11 37
-16 0 -5 15 -9 34 -9 19 0 41 -7 50 -15 8 -9 44 -20 78 -25 35 -5 87 -14 117
-20 72 -15 682 -10 702 6 8 6 49 14 92 18 43 3 91 13 107 21 16 8 45 15 65 15
19 0 35 4 35 9 0 6 21 13 48 17 45 6 58 11 130 47 19 9 42 17 52 17 9 0 23 6
29 14 7 8 24 18 39 21 15 3 45 17 67 30 22 14 50 29 63 35 12 5 22 14 22 19 0
5 14 12 30 16 17 4 30 10 30 15 0 4 20 21 45 37 25 15 45 31 45 36 0 4 9 7 20
7 11 0 20 6 20 14 0 7 12 22 28 31 32 21 262 254 262 266 0 5 7 9 15 9 8 0 15
7 15 16 0 34 40 52 105 47 81 -6 175 -40 175 -64 0 -24 -30 -77 -62 -110 -16
-16 -28 -31 -28 -34 0 -9 -40 -45 -50 -45 -5 0 -10 -6 -10 -13 0 -18 -97 -117
-115 -117 -8 0 -15 -5 -15 -11 0 -13 -48 -60 -111 -109 -24 -19 -52 -42 -62
-52 -10 -10 -24 -18 -32 -18 -8 0 -15 -4 -15 -9 0 -10 -167 -121 -182 -121 -6
0 -30 -13 -55 -30 -24 -16 -50 -30 -57 -30 -8 0 -19 -7 -26 -15 -7 -8 -20 -15
-29 -15 -9 0 -34 -9 -56 -20 -22 -11 -47 -20 -56 -20 -10 0 -19 -5 -21 -10 -2
-6 -21 -13 -43 -17 -22 -3 -44 -12 -48 -20 -5 -7 -25 -13 -51 -13 -23 0 -51
-7 -62 -15 -10 -8 -31 -15 -46 -15 -15 0 -45 -6 -65 -14 -21 -8 -71 -17 -112
-20 -41 -4 -79 -10 -85 -15 -6 -5 -60 -12 -121 -16 -60 -4 -137 -13 -170 -21
-79 -18 -225 -18 -300 1 -33 8 -109 18 -170 22 -60 3 -113 10 -116 15 -3 5
-30 11 -60 14 -30 4 -73 12 -97 20 -23 8 -55 14 -71 14 -16 0 -34 7 -41 15 -7
8 -27 15 -45 15 -18 0 -38 7 -45 15 -7 8 -27 17 -46 21 -19 3 -34 10 -34 15 0
5 -10 9 -22 9 -13 0 -33 6 -45 13 -28 16 -142 76 -170 91 -13 6 -23 14 -23 19
0 4 -11 7 -25 7 -16 0 -25 6 -25 15 0 8 -9 15 -20 15 -11 0 -20 4 -20 8 0 5
-23 23 -50 41 -28 18 -50 37 -50 42 0 5 -6 9 -13 9 -21 0 -307 268 -307 288 0
4 -14 22 -30 41 -17 18 -30 38 -30 42 0 5 -7 9 -15 9 -8 0 -15 9 -15 20 0 11
-4 20 -9 20 -5 0 -14 14 -20 30 -5 17 -15 30 -20 30 -6 0 -11 7 -11 15 0 8 -6
15 -14 15 -8 0 -17 13 -21 29 -3 16 -13 32 -21 35 -8 3 -14 19 -14 36 0 16 -4
30 -9 30 -9 0 -44 66 -56 108 -3 12 -10 22 -15 22 -5 0 -11 13 -15 30 -4 16
-11 30 -16 30 -5 0 -12 18 -15 40 -4 22 -10 40 -14 40 -5 0 -11 18 -15 39 -3
22 -13 47 -20 58 -8 10 -15 32 -15 49 0 16 -7 39 -15 50 -8 10 -15 37 -15 59
0 22 -6 49 -14 60 -7 11 -16 57 -19 101 -3 45 -10 91 -16 102 -15 28 -15 644
0 659 6 6 14 48 18 94 4 47 13 94 19 106 7 12 12 41 12 65 0 24 7 53 15 64 8
10 15 38 15 62 0 23 4 42 8 42 9 0 32 59 32 83 0 9 5 17 10 17 6 0 10 9 10 20
0 11 13 45 28 77 16 32 42 86 58 120 16 35 32 63 37 63 4 0 7 7 7 16 0 9 9 27
20 41 11 14 20 32 20 39 0 8 4 14 9 14 5 0 14 14 20 30 5 17 14 30 18 30 4 0
22 20 38 45 17 24 33 45 38 45 4 0 7 6 7 13 1 6 14 23 30 37 17 13 30 28 30
32 0 5 27 35 60 69 33 33 60 65 60 70 0 5 5 9 10 9 6 0 24 14 40 30 16 17 33
30 38 30 5 0 23 16 41 35 17 19 38 35 45 35 8 0 16 7 20 15 3 8 12 15 20 15 8
0 30 16 49 35 19 19 42 35 51 35 9 0 16 4 16 9 0 5 20 19 44 31 24 11 50 28
56 36 7 7 20 14 30 14 10 0 20 7 24 15 3 8 14 15 24 15 11 0 25 6 31 14 7 8
26 18 42 21 16 4 29 11 29 16 0 5 7 9 15 9 8 0 32 9 52 20 21 11 48 20 60 20
13 0 23 4 23 10 0 5 12 13 28 16 15 4 36 13 47 20 11 8 36 14 56 14 21 0 39 5
41 10 2 6 30 15 62 20 33 5 62 13 65 18 3 5 37 12 75 16 38 4 76 11 85 15 9 5
66 12 126 16 61 4 137 14 170 21 68 16 263 11 296 -7z m61 -351 c-17 -8 -26
-8 -34 0 -9 9 -4 12 23 11 32 0 33 -1 11 -11z m196 -35 c-10 -2 -26 -2 -35 0
-10 3 -2 5 17 5 19 0 27 -2 18 -5z m62 -47 c0 -9 -40 -13 -46 -5 -3 5 6 9 20
9 14 0 26 -2 26 -4z m139 -32 c48 -10 37 -24 -19 -24 -38 0 -50 4 -50 15 0 16
19 19 69 9z m151 -74 c0 -5 -6 -10 -14 -10 -8 0 -18 5 -21 10 -3 6 3 10 14 10
12 0 21 -4 21 -10z m103 -59 c4 0 7 -5 7 -11 0 -11 -111 -14 -147 -4 -46 13
-21 21 55 19 42 -1 80 -3 85 -4z m70 -38 c-7 -2 -19 -2 -25 0 -7 3 -2 5 12 5
14 0 19 -2 13 -5z m-1913 -27 c0 -11 -19 -15 -25 -6 -3 5 1 10 9 10 9 0 16 -2
16 -4z m2222 -386 c3 -17 2 -33 -2 -35 -10 -6 -28 37 -23 53 8 22 21 13 25
-18z m-2565 -2122 c-3 -8 -6 -5 -6 6 -1 11 2 17 5 13 3 -3 4 -12 1 -19z m2753
-148 c0 -6 -10 -15 -23 -21 -13 -6 -24 -20 -24 -31 -1 -11 -11 -29 -22 -40
-12 -10 -21 -26 -21 -34 0 -8 -4 -13 -9 -9 -11 6 -51 -42 -51 -61 0 -8 -6 -11
-15 -8 -10 4 -15 0 -15 -15 0 -12 -6 -21 -15 -21 -8 0 -15 -7 -15 -15 0 -8 -7
-15 -15 -15 -8 0 -15 -6 -15 -14 0 -8 -11 -17 -25 -20 -14 -4 -38 -20 -54 -36
-41 -44 -66 -40 -69 10 -2 33 0 40 16 40 25 0 27 60 3 61 -12 0 -10 3 4 8 11
5 23 7 28 4 4 -2 7 1 7 6 0 24 40 -15 41 -39 1 -15 3 -18 6 -9 3 11 11 15 24
12 17 -5 20 -2 17 18 -2 17 -9 24 -25 24 -11 0 -25 4 -30 9 -5 5 -1 7 9 3 11
-4 19 0 23 14 4 10 11 19 16 19 5 0 9 11 9 25 0 14 -6 25 -12 25 -9 0 -8 3 2
10 9 6 19 5 29 -3 11 -9 15 -9 18 1 3 6 11 12 19 12 8 0 14 6 14 13 0 8 7 14
15 14 11 0 12 -4 4 -14 -9 -10 -6 -13 15 -13 22 0 26 4 26 31 0 16 4 28 9 25
5 -3 20 3 32 15 13 11 18 17 10 13 -9 -5 -12 -3 -7 4 9 15 66 16 66 2z m-340
-170 c0 -5 -7 -10 -15 -10 -8 0 -15 5 -15 10 0 6 7 10 15 10 8 0 15 -4 15 -10z
m-2320 -59 c0 -11 -26 -22 -34 -14 -12 12 -5 23 14 23 11 0 20 -4 20 -9z
m2123 -98 c-7 -2 -19 -2 -25 0 -7 3 -2 5 12 5 14 0 19 -2 13 -5z m103 -48 c23
-9 34 -21 34 -34 0 -12 -5 -21 -10 -21 -6 0 -24 -10 -40 -22 -24 -18 -33 -19
-43 -9 -9 10 -8 15 6 25 32 24 21 43 -23 40 -49 -3 -51 6 -5 30 19 11 36 24
36 30 1 6 3 3 6 -7 2 -9 20 -24 39 -32z m-2116 15 c0 -5 -4 -10 -10 -10 -5 0
-10 5 -10 10 0 6 5 10 10 10 6 0 10 -4 10 -10z m100 -91 c0 -5 -7 -9 -15 -9
-15 0 -20 12 -9 23 8 8 24 -1 24 -14z m1923 -13 c33 -8 31 -29 -4 -37 -40 -9
-89 -31 -89 -39 0 -12 -77 -50 -101 -50 -17 0 -20 5 -17 25 3 14 1 25 -3 25
-5 0 -9 -4 -9 -10 0 -5 -4 -10 -9 -10 -16 0 0 39 28 69 16 17 32 26 41 22 18
-7 20 -37 2 -33 -7 1 -12 -4 -12 -12 0 -15 46 -11 56 5 3 5 18 9 34 9 31 0 49
28 28 42 -9 7 -7 8 7 5 11 -3 33 -8 48 -11z m-1817 -28 c3 -4 -1 -5 -10 -4 -8
1 -18 5 -22 8 -3 4 1 5 10 4 8 -1 18 -5 22 -8z m-46 -13 c0 -8 -4 -15 -9 -15
-13 0 -22 16 -14 24 11 11 23 6 23 -9z m108 -17 c-6 -16 -68 -42 -68 -28 0 5
7 10 15 10 9 0 18 7 21 15 7 18 38 21 32 3z m87 -58 c3 -5 -3 -10 -14 -10 -11
0 -23 5 -26 10 -3 6 3 10 14 10 11 0 23 -4 26 -10z m1435 -19 c-6 -12 -26 -21
-61 -25 -39 -5 -52 -12 -56 -26 -5 -19 -55 -40 -95 -40 -10 0 -18 -4 -18 -10
0 -5 -4 -10 -10 -10 -5 0 -10 11 -10 25 0 15 6 25 14 25 8 0 28 14 44 31 28
29 34 31 100 31 53 0 72 3 76 15 3 8 10 11 16 8 7 -4 7 -12 0 -24z m-1411 -19
c-11 -2 -28 0 -37 4 -13 6 -11 9 13 13 17 4 33 2 37 -4 4 -6 -1 -11 -13 -13z
m161 -58 c0 -8 -5 -12 -10 -9 -6 4 -8 11 -5 16 9 14 15 11 15 -7z m66 0 c-3
-8 -2 -13 3 -9 13 7 61 -12 61 -25 0 -13 -66 -13 -90 0 -22 12 -17 37 8 43 10
3 19 5 21 6 2 0 0 -6 -3 -15z m114 -4 c0 -5 -5 -10 -11 -10 -5 0 -7 5 -4 10 3
6 8 10 11 10 2 0 4 -4 4 -10z m784 -19 c3 -5 -18 -12 -46 -16 -29 -4 -57 -11
-63 -15 -10 -7 -172 -23 -250 -24 -22 -1 -46 -5 -54 -10 -24 -15 -143 -16
-200 -1 -51 13 -90 35 -63 35 20 0 26 3 41 18 13 13 43 12 106 -4 17 -4 17 -3
5 6 -12 8 -9 10 15 8 24 -2 30 -8 29 -25 -1 -28 11 -29 59 -3 21 11 42 18 47
15 5 -3 63 -7 128 -9 84 -2 122 1 130 10 9 10 8 14 -1 17 -7 3 16 6 50 6 34 1
64 -3 67 -8z m-730 -41 c-10 -10 -64 -2 -64 10 0 4 10 11 22 17 25 11 58 -11
42 -27z"/>
<path d="M2755 3780 c-25 -3 -66 -24 -107 -53 -38 -26 -72 -47 -78 -47 -5 0
-10 -5 -10 -11 0 -5 -43 -53 -95 -105 -52 -52 -107 -112 -121 -134 -15 -22
-31 -40 -35 -40 -5 0 -9 -8 -9 -17 0 -10 -14 -32 -30 -50 -17 -18 -30 -39 -30
-47 0 -9 -5 -16 -10 -16 -6 0 -16 -12 -23 -27 -6 -16 -17 -32 -24 -36 -7 -4
-13 -15 -13 -22 0 -8 -4 -15 -10 -15 -5 0 -12 -11 -16 -25 -3 -13 -12 -29 -20
-36 -8 -6 -14 -22 -14 -34 0 -12 -6 -28 -14 -34 -8 -7 -17 -27 -20 -46 -4 -18
-10 -35 -14 -37 -9 -4 -52 -131 -52 -155 0 -10 -7 -27 -15 -37 -8 -11 -15 -35
-15 -53 0 -19 -6 -44 -14 -56 -8 -12 -17 -57 -21 -100 -4 -42 -11 -80 -16 -83
-5 -3 -9 -60 -9 -127 0 -81 -5 -139 -15 -172 -19 -60 -18 -188 1 -260 7 -27
13 -79 14 -115 l0 -65 59 -63 60 -62 159 0 c133 0 161 3 166 15 3 9 18 15 35
15 16 0 31 6 35 15 3 8 12 15 21 15 8 0 15 4 15 9 0 5 10 13 23 17 22 7 67 49
67 62 0 8 37 42 46 42 10 0 53 55 54 68 0 7 7 15 15 18 8 4 15 15 15 25 0 10
6 19 14 19 8 0 17 11 20 25 4 14 10 25 15 25 5 0 12 13 16 29 3 16 13 35 21
42 8 6 14 19 14 29 0 10 7 23 15 30 8 7 15 24 15 39 0 14 7 35 15 45 8 11 18
41 21 68 4 26 10 48 15 48 5 0 9 28 9 63 0 41 5 70 16 85 9 13 18 51 21 85 3
34 10 65 15 68 5 3 11 30 14 60 4 30 12 73 20 97 8 23 14 59 14 80 1 20 7 48
15 62 9 15 14 54 15 98 0 55 3 72 14 72 10 0 16 20 21 70 4 39 11 72 15 75 5
3 12 36 15 73 4 37 12 72 17 79 5 6 14 51 19 100 6 48 13 107 15 131 4 32 0
51 -16 77 -12 19 -26 35 -31 35 -5 0 -9 7 -9 15 0 8 -12 18 -27 21 -16 4 -32
13 -38 20 -11 13 -185 23 -250 14z"/>
<path d="M3887 1353 c-4 -3 -7 -15 -7 -26 0 -11 -9 -21 -20 -24 -12 -3 -20
-12 -18 -21 5 -23 28 -27 28 -4 0 22 20 35 63 41 4 0 3 10 -3 21 -11 20 -31
26 -43 13z"/>
<path d="M3885 1270 c-3 -6 1 -7 9 -4 18 7 21 14 7 14 -6 0 -13 -4 -16 -10z"/>
<path d="M3495 4810 c4 -6 11 -8 16 -5 14 9 11 15 -7 15 -8 0 -12 -5 -9 -10z"/>
<path d="M4265 4300 c3 -5 8 -10 11 -10 2 0 4 5 4 10 0 6 -5 10 -11 10 -5 0
-7 -4 -4 -10z"/>
<path d="M4295 1590 c-7 -12 2 -30 16 -30 12 0 12 27 0 35 -5 3 -12 1 -16 -5z"/>
<path d="M4456 1532 c-3 -6 -1 -14 5 -17 15 -10 25 3 12 16 -7 7 -13 7 -17 1z"/>
</g>
</svg>
